<svg width="160" height="43" viewBox="0 0 160 43" fill="none" xmlns="http://www.w3.org/2000/svg">
<path d="M64.2186 9H57.5323C54.4625 9 53 10.4017 53 13.5323V20.1719C53 23.2885 54.4625 24.6995 57.5323 24.6995H64.2186C67.2884 24.6995 68.7462 23.2978 68.7462 20.1719V18.0039H64.0738V19.2141C64.0738 20.2887 63.6906 20.6485 62.6393 20.6485H59.2751C58.1958 20.6485 57.836 20.2887 57.836 19.2141V14.4715C57.836 13.3968 58.1958 13.037 59.2751 13.037H62.6393C63.6906 13.037 64.0738 13.3968 64.0738 14.4715V15.5275H68.7462V13.5323C68.7462 10.4111 67.2884 9 64.2186 9Z" fill="black"/>
<path d="M82.3147 9H75.0022C71.9324 9 70.4746 10.4017 70.4746 13.5323V20.1719C70.4746 23.2885 71.9324 24.6995 75.0022 24.6995H82.3147C85.3892 24.6995 86.847 23.2978 86.847 20.1719V13.5323C86.847 10.4111 85.3892 9 82.3147 9ZM82.0016 19.1626C82.0016 20.2373 81.6185 20.5971 80.5672 20.5971H76.7544C75.6751 20.5971 75.32 20.2373 75.32 19.1626V14.5416C75.32 13.4622 75.6751 13.1024 76.7544 13.1024H80.5672C81.6185 13.1024 82.0016 13.4622 82.0016 14.5416V19.1626Z" fill="black"/>
<path d="M100.282 17.588L92.8993 9H88.7969V24.6995H93.4601V15.8639L101.043 24.6995H104.945V9H100.282V17.588Z" fill="black"/>
<path d="M115.215 19.0926L111.36 9H106.066L112.729 24.6995H117.439L124.097 9H119.051L115.215 19.0926Z" fill="black"/>
<path d="M130.064 18.3496H137.872V15.0322H130.064V12.8361H138.769V9H125.219V24.6995H138.993V20.8634H130.064V18.3496Z" fill="black"/>
<path d="M152.416 16.6909L157.775 9H152.393L149.412 13.551L146.407 9H140.73L146.089 16.6909L140.506 24.6995H145.865L149.099 19.8542L152.327 24.6995H158L152.416 16.6909Z" fill="black"/>
<path d="M57.994 37C59.226 37 59.732 36.505 59.732 35.262V32.974C59.732 31.731 59.226 31.236 57.994 31.236H55.42C54.188 31.236 53.682 31.731 53.682 32.974V35.262C53.682 36.505 54.188 37 55.42 37H57.994ZM55.673 36.263C54.826 36.263 54.573 35.999 54.573 35.152V33.084C54.573 32.237 54.826 31.973 55.673 31.973H57.741C58.588 31.973 58.841 32.237 58.841 33.084V35.152C58.841 35.999 58.588 36.263 57.741 36.263H55.673ZM68.6181 31.236C68.0681 31.236 67.6391 31.28 67.3311 31.357C67.0231 31.434 66.6931 31.61 66.3301 31.885L66.0441 32.094L65.9231 31.236H65.2191V38.76H66.0991V36.186L66.3301 36.351C66.6931 36.626 67.0231 36.802 67.3311 36.879C67.6391 36.956 68.0681 37 68.6181 37H69.5311C70.7631 37 71.2691 36.505 71.2691 35.262V32.974C71.2691 31.731 70.7631 31.236 69.5311 31.236H68.6181ZM70.3781 35.152C70.3781 35.999 70.1141 36.263 69.2671 36.263H68.3541C67.6391 36.263 67.0671 36.109 66.6381 35.812L66.0991 35.427V32.809L66.6381 32.424C67.0671 32.127 67.6391 31.973 68.3541 31.973H69.2671C70.1141 31.973 70.3781 32.237 70.3781 33.084V35.152ZM78.3816 31.236C77.3696 31.236 76.9076 31.698 76.9076 32.71V33.062H77.7766V32.798C77.7766 32.149 78.0076 31.918 78.6566 31.918H80.5926C81.4396 31.918 81.6926 32.182 81.6926 33.029V33.755H77.9856C77.0946 33.755 76.6436 34.206 76.6436 35.097V35.658C76.6436 36.549 77.0946 37 77.9856 37H79.3826C79.8666 37 80.2406 36.967 80.4936 36.89C80.7466 36.824 81.0326 36.67 81.3736 36.428L81.7476 36.164L81.8686 37H82.5836V32.974C82.5836 31.731 82.0776 31.236 80.8456 31.236H78.3816ZM81.0656 35.944C80.6916 36.208 80.2186 36.34 79.6356 36.34H78.3376C77.7546 36.34 77.5346 36.142 77.5346 35.537V35.152C77.5346 34.569 77.7546 34.349 78.3376 34.349H81.6926V35.515L81.0656 35.944ZM90.1288 34.096L93.9238 31.236H92.5708L89.0288 34.019V29.3H88.1378V37H89.0288V34.217L92.6038 37H93.9788L90.1288 34.096ZM102.811 37C104.043 37 104.549 36.505 104.549 35.262V32.974C104.549 31.731 104.043 31.236 102.811 31.236H100.237C99.0048 31.236 98.4988 31.731 98.4988 32.974V35.262C98.4988 36.505 99.0048 37 100.237 37H102.811ZM100.49 36.263C99.6428 36.263 99.3898 35.999 99.3898 35.152V33.084C99.3898 32.237 99.6428 31.973 100.49 31.973H102.558C103.405 31.973 103.658 32.237 103.658 33.084V35.152C103.658 35.999 103.405 36.263 102.558 36.263H100.49ZM116.057 35.911L114.308 31.236H113.615L111.888 35.9L110.128 31.236H109.182L111.459 37H112.24L113.956 32.424L115.661 37H116.431L118.708 31.236H117.795L116.057 35.911ZM124.853 31.236C123.841 31.236 123.379 31.698 123.379 32.71V33.062H124.248V32.798C124.248 32.149 124.479 31.918 125.128 31.918H127.064C127.911 31.918 128.164 32.182 128.164 33.029V33.755H124.457C123.566 33.755 123.115 34.206 123.115 35.097V35.658C123.115 36.549 123.566 37 124.457 37H125.854C126.338 37 126.712 36.967 126.965 36.89C127.218 36.824 127.504 36.67 127.845 36.428L128.219 36.164L128.34 37H129.055V32.974C129.055 31.731 128.549 31.236 127.317 31.236H124.853ZM127.537 35.944C127.163 36.208 126.69 36.34 126.107 36.34H124.809C124.226 36.34 124.006 36.142 124.006 35.537V35.152C124.006 34.569 124.226 34.349 124.809 34.349H128.164V35.515L127.537 35.944ZM138.008 31.236C137.458 31.236 137.029 31.28 136.721 31.357C136.413 31.434 136.083 31.61 135.72 31.885L135.434 32.094L135.313 31.236H134.609V37H135.489V32.82L136.028 32.435C136.457 32.138 137.029 31.984 137.744 31.984H138.547C139.394 31.984 139.658 32.248 139.658 33.095V37H140.549V32.974C140.549 31.731 140.043 31.236 138.811 31.236H138.008ZM147.025 30.169V29.3H146.134V30.169H147.025ZM147.025 37V31.236H146.134V37H147.025ZM154.3 31.236C153.288 31.236 152.826 31.698 152.826 32.71V33.062H153.695V32.798C153.695 32.149 153.926 31.918 154.575 31.918H156.511C157.358 31.918 157.611 32.182 157.611 33.029V33.755H153.904C153.013 33.755 152.562 34.206 152.562 35.097V35.658C152.562 36.549 153.013 37 153.904 37H155.301C155.785 37 156.159 36.967 156.412 36.89C156.665 36.824 156.951 36.67 157.292 36.428L157.666 36.164L157.787 37H158.502V32.974C158.502 31.731 157.996 31.236 156.764 31.236H154.3ZM156.984 35.944C156.61 36.208 156.137 36.34 155.554 36.34H154.256C153.673 36.34 153.453 36.142 153.453 35.537V35.152C153.453 34.569 153.673 34.349 154.256 34.349H157.611V35.515L156.984 35.944Z" fill="black"/>
<path fill-rule="evenodd" clip-rule="evenodd" d="M36.8816 14.3437L22.165 22.8082C21.6661 23.0953 21.0521 23.0953 20.553 22.8082C20.553 22.8082 3.41438 12.9502 3.41471 12.9505C3.30899 12.8897 3.20941 12.817 3.11856 12.7323L3.03999 12.654C2.95108 12.5593 2.87511 12.4549 2.81238 12.3437L2.8043 12.3291C2.66851 12.0828 2.60353 11.8154 2.60353 11.5516C2.60256 11.2874 2.66657 11.02 2.80171 10.773L2.8098 10.7585C2.8722 10.6473 2.94785 10.5425 3.03644 10.4471L3.11468 10.3689C3.2052 10.2839 3.30446 10.2108 3.40986 10.15L20.5484 0.217991C21.0499 -0.0726635 21.6684 -0.0726635 22.1698 0.217991L27.1775 3.12097C27.1879 3.12712 27.1982 3.13326 27.2083 3.1394C27.4511 3.2878 27.5978 3.55292 27.5949 3.83743C27.592 4.12194 27.4394 4.38382 27.1937 4.52704L25.5872 5.46399C25.336 5.61045 25.0259 5.61077 24.7744 5.46496L21.359 3.48502L7.45315 11.5435L21.359 19.5421L35.3336 11.504L32.7287 9.98255C32.7051 9.96865 32.6819 9.95442 32.6592 9.93954C32.4248 9.7863 32.2865 9.52248 32.2936 9.2425C32.3007 8.96251 32.4523 8.70612 32.6945 8.56484L34.2974 7.63015C34.549 7.48337 34.8603 7.48338 35.1122 7.63048L39.3136 10.0847C39.8373 10.3906 40.1254 10.947 40.1144 11.5141L40.1147 11.549C40.1147 11.549 40.1147 11.5512 40.1147 11.5493V31.2795C40.1147 31.8566 39.8073 32.3898 39.3078 32.6788L22.1689 42.5966C21.6681 42.8866 21.0502 42.8866 20.5494 42.5966L3.4105 32.6788C2.91099 32.3898 2.60353 31.8566 2.60353 31.2795V24.0041C2.60353 23.7215 2.75096 23.4593 2.99279 23.3129C3.2343 23.1664 3.53498 23.1567 3.78554 23.2873L5.40208 24.1305C5.66914 24.2699 5.83661 24.546 5.83661 24.8473V30.3474L21.359 39.3299L36.8816 30.3474V14.3437Z" fill="black"/>
<path fill-rule="evenodd" clip-rule="evenodd" d="M21.3256 27.6221C21.3256 27.4981 21.2493 27.3542 21.1556 27.3011L14.2794 23.4072C14.1857 23.3541 14.1094 23.4116 14.1094 23.5356V25.5819C14.1094 25.7059 14.1857 25.8496 14.2794 25.9027L21.1556 29.7966C21.2493 29.8497 21.3256 29.7924 21.3256 29.6684V27.6221Z" fill="black"/>
<path fill-rule="evenodd" clip-rule="evenodd" d="M21.3827 32.0845C21.3827 31.9469 21.298 31.7869 21.1937 31.7279L16.7339 29.2024C16.6297 29.1433 16.5449 29.2073 16.5449 29.3449V31.3414C16.5449 31.479 16.6297 31.6388 16.7339 31.6978L21.1937 34.2234C21.298 34.2824 21.3827 34.2186 21.3827 34.081V32.0845Z" fill="black"/>
</svg>
